<svg xmlns="http://www.w3.org/2000/svg" xmlns:xlink="http://www.w3.org/1999/xlink" version="1.1" id="Layer_1" x="0px" y="0px" viewBox="0 0 595.3 582.4" style="enable-background:new 0 0 595.3 582.4;" xml:space="preserve">
<style xmlns="http://www.w3.org/2000/svg" type="text/css">
	.st0{opacity:0.1;fill:#2A94F4;enable-background:new    ;}
	.st1{fill:#ECECEC;}
	.st2{fill:#D9D9D9;}
	.st3{fill:#C6C6C5;}
	.st4{fill:#DBD4DA;}
	.st5{fill:#051f9d;}
	.st6{fill:#FED17A;}
	.st7{fill:none;stroke:#FFFFFF;stroke-width:2.2052;stroke-miterlimit:10;}
	.st8{fill:none;stroke:#FFFFFF;stroke-width:13.1376;stroke-linecap:round;stroke-linejoin:round;stroke-miterlimit:10;}
	.st9{fill:none;stroke:#FFFFFF;stroke-width:9.0321;stroke-linecap:round;stroke-linejoin:round;stroke-miterlimit:10;}
	.st10{fill:#01384F;}
	.st11{fill:#F8BBA9;}
	.st12{fill:#EFB5A8;}
	.st13{fill:none;}
	.st14{fill:#F6B7A0;}
	.st15{fill:#425569;}
	.st16{fill:#FACBB6;}
	.st17{fill:none;stroke:#535E5F;stroke-width:0.3025;stroke-linecap:round;stroke-miterlimit:10;}
	.st18{fill:none;stroke:#535E5F;stroke-width:0.3025;stroke-miterlimit:10;}
	.st19{fill:#013547;}
	.st20{fill:#023142;}
	.st21{fill:none;stroke:#7984A3;stroke-width:0.4805;stroke-linecap:round;stroke-miterlimit:10;}
	.st22{fill:#2A94F4;}
</style>
<g xmlns="http://www.w3.org/2000/svg" id="Background">
	<path class="st0" d="M337.8,522.5C403,502,522.1,505.3,541.1,373.8c19-131.5-83.3-192.2-67.9-278.2c15.4-86-226.8-192-260.1,19.9   S85.1,286.5,55.5,248.6S-32.1,221.8-49.3,267s-3.5,227.1,109.6,252.2C173.3,544.2,272.6,543,337.8,522.5z"/>
	<ellipse class="st0" cx="292.7" cy="532.4" rx="267.5" ry="43.3"/>
</g>
<g xmlns="http://www.w3.org/2000/svg">
	<g>
		<path class="st1" d="M393,506.2h-8.6c-12.9,0-23.4-10.5-23.4-23.4v-19.5h55.5v19.5C416.5,495.7,406,506.2,393,506.2z"/>
		<path class="st2" d="M415.6,484.7h-53.2c-9.7,0-17.6-7.9-17.6-17.6v-64.2h88.5v64.2C433.2,476.8,425.3,484.7,415.6,484.7z"/>
		<path class="st3" d="M433.5,440.7h-89.7c-5.9,0-10.7-4.8-10.7-10.7l0,0c0-5.9,4.8-10.7,10.7-10.7h89.7c5.9,0,10.7,4.8,10.7,10.7v0    C444.2,435.9,439.4,440.7,433.5,440.7z"/>
		<path class="st3" d="M433.5,473h-89.7c-5.9,0-10.7-4.8-10.7-10.7l0,0c0-5.9,4.8-10.7,10.7-10.7h89.7c5.9,0,10.7,4.8,10.7,10.7l0,0    C444.2,468.2,439.4,473,433.5,473z"/>
		<path class="st4" d="M370.9,473h-1.1c-5.9,0-10.7-4.8-10.7-10.7l0,0c0-5.9,4.8-10.7,10.7-10.7h1.1c5.9,0,10.7,4.8,10.7,10.7v0    C381.6,468.2,376.8,473,370.9,473z"/>
	</g>
	<g>
		<path class="st5" d="M514.9,256.3c0-64.2-56.3-116.3-125.9-116.3s-125.9,52.1-125.9,116.3c0,38.5,20.2,72.6,51.4,93.8l0,0    c0,0,14.6,8,16.2,29.8v15.7c0,7.3,6.4,13.3,14.4,13.3H433c7.9,0,14.4-6,14.4-13.3v-15.8c1.7-21.7,16-29.6,16-29.6l0,0    C494.6,329,514.9,294.8,514.9,256.3z"/>
		
			<ellipse transform="matrix(0.2131 -0.977 0.977 0.2131 46.156 591.7722)" class="st6" cx="390.5" cy="267.2" rx="90.9" ry="90.9"/>
		<g>
			<path class="st7" d="M375.7,408.9V277.7c0-9.7-7.9-17.6-17.6-17.6l0,0c-9.7,0-17.6,7.9-17.6,17.6v9.8c0,9.7,7.9,17.6,17.6,17.6     l30.3,0.1"/>
			<path class="st7" d="M401.6,408.9V277.7c0-9.7,7.9-17.6,17.6-17.6l0,0c9.7,0,17.6,7.9,17.6,17.6v9.8c0,9.7-7.9,17.6-17.6,17.6     l-32.7,0.1"/>
		</g>
		<g>
			<path class="st8" d="M344.3,176.3"/>
			<path class="st8" d="M314,201.2"/>
			<path class="st9" d="M291.9,263.5"/>
			<path class="st9" d="M293.9,283.7"/>
		</g>
	</g>
</g>
<g xmlns="http://www.w3.org/2000/svg">
	<g>
		<path class="st10" d="M239.5,156.3c-8.6-9.6-20-9.5-30-6.4c-15.4,4.8-31.6,5.2-47.4,1.8c-15.8-3.3-33.6-0.4-49.4,18.8    c-22.4,27.2-9.7,53.6,2.4,66.1c21.6,22.3,67.3,39.7,99.6-27C214.8,209.6,263.1,182.4,239.5,156.3z"/>
		<g>
			<g>
				<g>
					<g>
						<path class="st11" d="M237.5,252.3l-0.2-36.5c15.5-4.4,16.1-23.6,14.4-37.1c-1.5-12-11-21.7-23-22.8c-3.7-0.3-7.5,0.1-11.2,2        c-8.8,4.3-11.9,17.6-13,27.7l0.8,12.7l-1.2,52.3C203.6,251,237.5,252.3,237.5,252.3z"/>
						<path class="st12" d="M237.3,215.8c0,0-7.2,2.6-17.3-4.1c0,0,5.7,11.6,17.4,15.7L237.3,215.8z"/>
					</g>
				</g>
			</g>
			<g>
				<path class="st13" d="M239,187.3"/>
			</g>
			<g>
				<path class="st13" d="M238.4,178.3"/>
			</g>
			<g>
				<path class="st13" d="M221.2,180.3"/>
			</g>
			<g>
				<path class="st13" d="M241.4,175.1"/>
			</g>
			<g>
				<path class="st13" d="M247,180.1"/>
			</g>
			<g>
				<path class="st13" d="M247.4,172.6"/>
			</g>
		</g>
		<path class="st10" d="M225.9,156.8c0,0-5.9,20-20.3,21.9c0,0-5.3-12.6,1.7-20.2C214.1,151.2,225.9,156.8,225.9,156.8z"/>
		<path class="st10" d="M244.7,163.7c0,0-3.9-12.9-24.7-8.8C220,154.9,236.3,165,244.7,163.7z"/>
	</g>
	<g>
		<g>
			<path class="st14" d="M362.3,277.4c0.4-1.8-6.6,4.6-6.6,4.6s5.4-7.4,6-10.2c0.4-2.3-8.5,6.2-8.5,6.2c6.6-12,6.8-11.3,6.6-12     c-0.4-1.9-10.1,10.5-10.1,10.5s5.4-8.8,4.5-10.3c-1-1.6-13.1,13.9-13.1,13.9s-0.2-4.6-3.4-7.2c-0.8-0.7-2.2-0.3-2.8,0.2     c2.8,4.7-1.3,17.3-1.3,17.3c0,0-21.8,31-51.4,47c-4.5-7-9-16-13.3-25.9c-5.9-13.5-10.6-27.4-14.7-41.6     c-6.9-24.5-16.8-23.8-16.8-23.8c-13.5,0.1-19.8,8-19.9,23.5c-0.1,15.7,3.8,31.2,10.7,45.3c21,43.2,39.1,58.3,46.3,57.8     c3.5,0.9,33.3-4.3,68-66.3l0,0l3.8-7.5C346.3,298.7,361.9,279.2,362.3,277.4z"/>
		</g>
		<g>
			<g>
				<g>
					<g>
						<path class="st15" d="M151.5,498.4c-0.1,0-0.5-0.9-1.1-1.9c-0.5-1.1-1-2-0.9-2c0.1-0.1,0.7,0.7,1.3,1.9        C151.3,497.4,151.6,498.4,151.5,498.4z"/>
					</g>
				</g>
				<g>
					<g>
						<path class="st15" d="M152,496.6c-0.1,0-0.4-0.9-0.9-2c-0.5-1.1-0.9-2-0.8-2.1c0.1-0.1,0.7,0.8,1.2,1.9        C152,495.6,152.1,496.6,152,496.6z"/>
					</g>
				</g>
				<g>
					<g>
						<path class="st15" d="M147,496.6c0-0.1,1.3-0.2,2.4,0.8c1.1,1,1.2,2.3,1,2.3c-0.1,0-0.3-1.1-1.3-2        C148.1,496.8,147,496.8,147,496.6z"/>
					</g>
				</g>
				<g>
					<g>
						<g>
							<polygon class="st16" points="160.9,457.2 131,456.8 132.1,493.2 161.5,492.9        "/>
							<g>
								<path class="st10" d="M138,456.2c0,0,2.6,13.6-3.6,21.1c-3.7,4.5-1.9,18.2-1.9,18.2s-5.9,18.9-11,17.2          c-1.1-0.4,1.1-57.1,1.1-57.1L138,456.2z"/>
								<polygon class="st10" points="122.6,455.6 115.3,455.4 115.4,513.1 121.5,512.6         "/>
								<path class="st17" d="M121.5,512.6"/>
								<path class="st17" d="M122.6,455.6"/>
								<path class="st17" d="M130.2,501.9c0,0,0-2.7-4.1-3.2c-3.8-0.5-4.3-5.4-4.3-5.4"/>
								<path class="st17" d="M122.4,469.8"/>
								<path class="st17" d="M135.5,456.2"/>
								<g>
									<path class="st18" d="M131.9,492.5c0,0,5.8-3.9,7.5-0.8c2.7,4.9-4.9,2.6-7.2,1.8c-0.1,0-0.2,0.1-0.1,0.2           c1.5,1.1,5.5,4.3,3.8,6.1c-2.1,2.1-4.4-5.5-4.4-5.5"/>
								</g>
							</g>
						</g>
						<polygon class="st19" points="154.7,472.3 154.4,454.8 191.8,454.3 211.5,465.1       "/>
					</g>
					<g>
						<path class="st20" d="M264.4,415.1c0,0,113.2,15.4,115.8,49.2c2.6,33.8-29.7,44.1-63.5,44.7c-12,0.2-146.2,1.2-146.2,1.2        v-45.9h117.3c0,0-96.7-10.3-87-49L264.4,415.1z"/>
					</g>
				</g>
				<g>
					<g>
						<polygon class="st16" points="150.2,468 120.4,467.7 121.4,504.1 150.9,503.8       "/>
						<g>
							<path class="st10" d="M127.3,467.1c0,0,2.6,13.6-3.6,21.1c-3.7,4.5-1.9,18.2-1.9,18.2s-5.9,18.9-11,17.2         c-1.1-0.4,1.1-57.1,1.1-57.1L127.3,467.1z"/>
							<polygon class="st10" points="111.9,466.5 104.7,466.3 104.7,524 110.8,523.5        "/>
							<path class="st17" d="M110.8,523.5"/>
							<path class="st17" d="M111.9,466.5"/>
							<path class="st17" d="M111.8,480.7"/>
							<path class="st17" d="M124.9,467.1"/>
						</g>
					</g>
					<g>
						<path class="st10" d="M236.7,415.2c0,0,110.8,15.2,113.4,49c2.6,33.8-29.7,44.1-63.5,44.7c-12,0.2-146.2,1.2-146.2,1.2v-45.9        h88.2c0,0-68.2,13.4-57.9-49H236.7z"/>
					</g>
					<path class="st21" d="M286.5,464.3"/>
					<path class="st21" d="M140.4,464.3"/>
				</g>
			</g>
			<path class="st22" d="M321.8,304.7c-9.2,10.2-23.2,23.7-39.5,32.5c-4.5-7-9-16-13.3-25.9c-5.9-13.5-10.6-27.4-14.7-41.6     c-6.9-24.5-16.8-24.3-16.8-24.3l-33-7c-12.6,0-24.6,13.6-34.4,34.2c-13.8,28.9-29.2,74.1-22.3,79.5c5,4,14.4,5.8,24.9,6.4     l-1.8,58c9.6,0.8,19.4,3.2,28.9,3.7c14.8,0.7,29.7,1.9,44.4,0.8c7-0.5,13.8-1.5,19.4-4.4c-0.5-15.2-2.2-32.9-3.2-46.5     c-0.1-0.8-0.1-1.6-0.2-2.4c6.7,6.6,12,9.6,14.9,9.4c3.2,0.8,30.1-4.5,60.9-52.6C332.1,319.1,325.7,310.1,321.8,304.7z"/>
		</g>
	</g>
</g>
</svg>