<svg xmlns="http://www.w3.org/2000/svg" xmlns:xlink="http://www.w3.org/1999/xlink" version="1.1" x="0px" y="0px" width="500px" height="421px" viewBox="0 0 500 421" enable-background="new 0 0 500 421" xml:space="preserve">
<g xmlns="http://www.w3.org/2000/svg" id="BACKGROUND">
</g>
<g xmlns="http://www.w3.org/2000/svg" id="OBJECTS">
</g>
<g xmlns="http://www.w3.org/2000/svg" id="DESIGNED_BY_FREEPIK">
	<path fill="#2A94F4" d="M234.39,283.596c0,0,4.993-33.756,35.245-38.947c30.251-5.188,26.592-47.927,67.925-46.228   c41.333,1.702,32.816,41.465,49.264,50.394c16.447,8.932,24.083,34.781,24.083,34.781H234.39z"/>
	<path fill="#2A94F4" d="M239.556,283.596c0,0,0-27.371-32.439-37.011c-32.439-9.639-24.716-59.844-65.266-52.12   c-40.549,7.724-20.854,59.086-36.687,70.285s-12.358,18.846-12.358,18.846H239.556z"/>
	<g>
		<path fill="#D3D3D3" d="M398.461,283.745l-1.225,0.021l22.229-79.68C426.401,206.873,398.461,283.745,398.461,283.745z"/>
		<path fill="#D3D3D3" d="M390.408,283.886l-21.19-60.582c5.491-0.268,12.593,23.419,15.9,35.704    c1.113,4.434,1.849,7.186,1.849,7.186s-0.693-2.896-1.849-7.186c-4.45-17.748-14.951-62.548-8.671-66.799l16.54,91.633    L390.408,283.886z"/>
		<path fill="#D3D3D3" d="M395.61,283.795l1.889-108.233c7.653,5.18,0.962,93.976,0.962,93.976s13.016-63.796,20.283-65.501    l-22.248,79.742L395.61,283.795z"/>
		<path fill="#9DADEC" d="M385.118,259.008c1.156,4.289,1.849,7.186,1.849,7.186S386.23,263.441,385.118,259.008z"/>
		<path fill="#D3D3D3" d="M393.706,283.829l-16.586-91.891c8.676-1.509,16.609,77.599,16.609,77.599s-5.748-94.218,3.042-94.218    c0.008,0,0.015,0.003,0.022,0.003L394.9,283.808L393.706,283.829z"/>
		<path fill="#D3D3D3" d="M387.305,283.938c0,0-26.372-56.382-18.934-60.4c0.051-0.027,0.103-0.043,0.154-0.066l21.135,60.428    L387.305,283.938z"/>
		<path fill="#CCE9FF" d="M396.497,283.778l22.248-79.742c0.232-0.057,0.459-0.048,0.68,0.029c0.015,0.004,0.026,0.018,0.042,0.021    l-22.229,79.68L396.497,283.778z"/>
		<path fill="#CCE9FF" d="M394.9,283.808l1.893-108.485c0.248,0.005,0.482,0.089,0.706,0.239l-1.889,108.233L394.9,283.808z"/>
		<path fill="#CCE9FF" d="M392.987,283.842l-16.54-91.633c0.12-0.08,0.245-0.147,0.376-0.199c0.099-0.037,0.197-0.052,0.296-0.071    l16.586,91.891L392.987,283.842z"/>
		<path fill="#CCE9FF" d="M389.66,283.899l-21.135-60.428c0.228-0.102,0.459-0.157,0.693-0.168l21.19,60.582L389.66,283.899z"/>
	</g>
	<g>
		<path fill="#D3D3D3" d="M110.039,283.829l-16.586-91.891c8.676-1.507,16.609,77.599,16.609,77.599s-5.748-94.218,3.043-94.218    c0.007,0,0.015,0.003,0.021,0.003l-1.892,108.485L110.039,283.829z"/>
		<path fill="#D3D3D3" d="M106.74,283.886l-21.188-60.582c5.49-0.269,12.592,23.419,15.901,35.704    c1.112,4.434,1.847,7.186,1.847,7.186s-0.692-2.896-1.847-7.186c-4.451-17.748-14.952-62.55-8.671-66.799l16.54,91.633    L106.74,283.886z"/>
		<path fill="#9DADEC" d="M101.453,259.008c1.155,4.289,1.847,7.186,1.847,7.186S102.564,263.441,101.453,259.008z"/>
		<path fill="#D3D3D3" d="M103.638,283.938c0,0-26.371-56.382-18.933-60.4c0.051-0.027,0.103-0.043,0.153-0.067l21.137,60.429    L103.638,283.938z"/>
		<path fill="#D3D3D3" d="M114.795,283.745l-1.225,0.021l22.229-79.68C142.734,206.873,114.795,283.745,114.795,283.745z"/>
		<path fill="#D3D3D3" d="M111.944,283.795l1.889-108.233c7.653,5.18,0.962,93.976,0.962,93.976s13.016-63.796,20.283-65.501    l-22.248,79.742L111.944,283.795z"/>
		<path fill="#CCE9FF" d="M112.831,283.778l22.248-79.742c0.232-0.057,0.459-0.048,0.679,0.029c0.015,0.004,0.027,0.018,0.042,0.021    l-22.229,79.68L112.831,283.778z"/>
		<path fill="#CCE9FF" d="M111.234,283.808l1.892-108.485c0.249,0.005,0.483,0.089,0.707,0.239l-1.889,108.233L111.234,283.808z"/>
		<path fill="#CCE9FF" d="M109.321,283.842l-16.54-91.633c0.119-0.08,0.243-0.147,0.376-0.199c0.099-0.037,0.197-0.054,0.295-0.071    l16.586,91.891L109.321,283.842z"/>
		<path fill="#CCE9FF" d="M105.995,283.899l-21.137-60.429c0.228-0.101,0.459-0.156,0.693-0.167l21.188,60.582L105.995,283.899z"/>
	</g>
	<g>
		<path fill="#0B4870" d="M372.281,210.948l-17.141,72.209l-1.367-0.012l-4.204-21.188    C349.355,253.4,350.77,228.624,372.281,210.948z"/>
		<path fill="#0B4870" d="M372.568,283.308l-7.585-0.064l31.441-35.461C388.549,275.788,372.568,283.308,372.568,283.308z"/>
		<path fill="#0B4870" d="M396.25,246.911l-32.208,36.324l-2.001-0.02l9.957-20.389C375.731,257.089,383.655,247.825,396.25,246.911    z"/>
		<path fill="#0B4870" d="M371.843,261.528l-10.587,21.682l-5.388-0.047l17.015-71.676    C380.748,231.192,375.368,251.765,371.843,261.528z"/>
		<path fill="#0B4870" d="M341.191,283.036c0,0-24.197-9.356-24.625-46.238L348.56,283.1L341.191,283.036z"/>
		<path fill="#0B4870" d="M348.963,262.548l4.085,20.591l-3.621-0.03l-32.601-47.182    C339.863,245.564,346.921,257.487,348.963,262.548z"/>
		<path fill="#2A94F4" d="M396.685,246.873c-0.083,0.311-0.174,0.604-0.26,0.909l-31.441,35.461l-0.941-0.008l32.208-36.324    C396.396,246.901,396.538,246.882,396.685,246.873z"/>
		<path fill="#2A94F4" d="M372.568,210.709c0.109,0.259,0.21,0.52,0.313,0.778l-17.015,71.676l-0.727-0.006l17.141-72.209    C372.378,210.87,372.471,210.789,372.568,210.709z"/>
		<path fill="#2A94F4" d="M316.827,235.927l32.601,47.182l-0.868-0.009l-31.994-46.302c-0.004-0.328-0.01-0.654-0.01-0.989    C316.649,235.848,316.735,235.889,316.827,235.927z"/>
		<path fill="#577BC2" d="M369.694,266.839c-0.151,0.327-0.237,0.501-0.237,0.501S369.536,267.161,369.694,266.839z"/>
		<path fill="#577BC2" d="M369.694,266.839c-0.158,0.322-0.237,0.501-0.237,0.501S369.543,267.166,369.694,266.839    c0.356-0.727,1.118-2.189,2.304-4.012l-9.957,20.389l-0.786-0.006l10.587-21.682C370.894,264.158,370.079,266.006,369.694,266.839    z"/>
		<path fill="#577BC2" d="M349.749,265.007c0,0-0.132-1.109-0.18-3.05l4.204,21.188l-0.725-0.007l-4.085-20.591    C349.587,264.093,349.749,265.007,349.749,265.007z"/>
	</g>
	<g>
		<path fill="#0B4870" d="M141.704,267.653l-3.772,16.617h-1.87l-10.97-74.564C144.32,229.08,143.385,255.574,141.704,267.653z"/>
		<path fill="#0B4870" d="M167.623,233.531l-28.084,50.739h-0.881l4.162-18.331C146.115,256.425,153.396,241.072,167.623,233.531z"/>
		<path fill="#0B4870" d="M144.55,284.271h-4.201l27.862-50.336C167.926,272.911,144.55,284.271,144.55,284.271z"/>
		<path fill="#0B4870" d="M122.575,284.271c0,0-19.125-8.921-27.902-38.627l31.037,38.627H122.575z"/>
		<path fill="#0B4870" d="M122.136,268.72l5.808,15.551h-1.326l-31.792-39.567C109.939,249.425,118.253,261.272,122.136,268.72z"/>
		<path fill="#0B4870" d="M124.497,210.538l10.848,73.732h-6.642l-5.817-15.575C119.68,257.215,114.809,232.378,124.497,210.538z"/>
		<path fill="#2A94F4" d="M168.217,233.218c0,0.241-0.005,0.478-0.006,0.717l-27.862,50.336h-0.811l28.084-50.739    C167.82,233.427,168.018,233.32,168.217,233.218z"/>
		<path fill="#2A94F4" d="M124.941,209.551c0.052,0.052,0.1,0.105,0.151,0.155l10.97,74.564h-0.718l-10.848-73.732    C124.643,210.21,124.789,209.88,124.941,209.551z"/>
		<path fill="#2A94F4" d="M94.826,244.703l31.792,39.567h-0.909l-31.037-38.627c-0.109-0.368-0.223-0.726-0.329-1.099    C94.507,244.594,94.664,244.651,94.826,244.703z"/>
		<path fill="#577BC2" d="M140.894,272.376c-0.276,1.114-0.4,1.751-0.4,1.751S140.658,273.509,140.894,272.376    c0.359-1.444,0.978-3.697,1.926-6.437l-4.162,18.331h-0.726l3.772-16.617C141.424,269.658,141.125,271.264,140.894,272.376z"/>
		<path fill="#577BC2" d="M140.894,272.376c-0.235,1.133-0.4,1.751-0.4,1.751S140.617,273.49,140.894,272.376z"/>
		<path fill="#577BC2" d="M124.492,273.892c0.281,0.814,0.449,1.249,0.449,1.249S124.794,274.682,124.492,273.892    c-0.377-1.094-0.958-2.872-1.606-5.196l5.817,15.575h-0.758l-5.808-15.551C123.295,270.939,124.059,272.762,124.492,273.892z"/>
		<path fill="#577BC2" d="M124.492,273.892c0.303,0.79,0.449,1.249,0.449,1.249S124.772,274.706,124.492,273.892z"/>
	</g>
	<path fill="#CFE6FD" d="M249.868,263.437c119.951,0,170.44,19.805,170.44,19.805s-50.489,8.323-170.44,8.323   c-119.951,0-170.44-8.323-170.44-8.323S129.917,263.437,249.868,263.437z"/>
	<g>
		<path fill="#0B4870" d="M227.867,277.511c0,0-4.333,2.674-7.655,2.957s-5.185,0.709-5.428,2.896    c-0.243,2.187,8.952,1.479,10.531,1.154c1.58-0.324,8.749,0.283,9.722-0.324c0.972-0.607-0.081-6.399-0.486-7.25    C234.146,276.093,227.867,277.511,227.867,277.511z"/>
		<path fill="#D3D3D3" d="M228.064,275.499l-0.013,2.001c0,0,4.662,0.695,6.064-0.55l0.179-1.869L228.064,275.499z"/>
		<path fill="#0B4870" d="M250.347,276.892c0,0-2.653,3.135-5.415,3.854c-2.763,0.72-5.842,2.072-5.813,3.827    c0.029,1.756,9.094,1.928,12.374,0.346c3.281-1.583,5.18-1.993,5.669-3.327c0.489-1.336-0.77-4.831-0.747-5.252    C256.442,275.819,250.347,276.892,250.347,276.892z"/>
		<path fill="#D3D3D3" d="M250.291,275.378c0,0,0.04,1.79,0.095,1.818c0.054,0.029,5.581,0.558,5.942-0.552    c0.316-0.971,0.276-2.12,0.276-2.12L250.291,275.378z"/>
		<path fill="#0B4870" d="M235.801,201.9c0,0-13.913,23.484-16.854,29.06c-2.723,5.167,1.536,16.413,2.191,20.138    c0.684,3.892,7.165,23.095,6.776,24.454s7.154-0.471,7.154-0.471s-4.383-34.069-4.836-37.501s15.036-24.942,15.943-23.583    c0.906,1.359,1.43,25.261,1.883,29.015c0.453,3.756,1.923,32.251,1.923,32.251s6.732,1.102,8.221-1.294    c0,0,0.388-29.977,0.454-32.631c0.064-2.655,3.597-28.972,0.324-40.989C257.25,193.999,235.801,201.9,235.801,201.9z"/>
		<path fill="#514E58" d="M252.153,141.376l-6.102,5.747l-0.073,0.072l-2.316,2.18l-1.135-1.107l-2.57-2.488l-0.299-0.3l0.999-1.099    l0.754-0.826l0.218-0.245l0.954-1.053l0.218-0.236l0.908-1.008c0,0,0,0,0-0.009l3.405-3.732l0.199-0.219l0.572,0.519l0.263,0.227    L252.153,141.376z"/>
		<polygon fill="#3E3B42" points="243.898,148.539 251.245,141.618 247.061,137.875 240.436,145.167   "/>
		<path fill="#F1B99E" d="M238.845,149.504c0,0,1.278-0.307,0.901-1.839c-0.376-1.53,0.213-1.882,0.213-1.882l4.453,4.316    c0,0-2.163,2.086-2.819,2.169C240.937,152.351,238.186,150.339,238.845,149.504z"/>
		<path fill="#F1B99E" d="M244.413,150.1c0,0,2.709-1.734,2.965-1.994c0.256-0.259,1.467-1.417,1.964-2.103    c0.496-0.687-1.481-0.518-2.055,0.194c-0.573,0.713-1.088,0.914-1.486,1.072c-0.397,0.156-2.798,0.298-3.274,1.002    C242.051,148.976,244.413,150.1,244.413,150.1z"/>
		<path fill="#F1B99E" d="M240.797,144.854c0,0,0.324,0.424,0.583-0.067c0.259-0.492,0.238-1.624-0.42-1.352    C240.3,143.708,240.797,144.854,240.797,144.854z"/>
		<path fill="#F1B99E" d="M241.632,143.355c0,0,0.113,0.837,0.522,0.46c0.408-0.377,0.817-1.778,0.106-1.742    C241.548,142.108,241.632,143.355,241.632,143.355z"/>
		<path fill="#F1B99E" d="M242.796,142.134c0,0-0.002,1.01,0.472,0.721c0.356-0.22,0.868-2.037,0.157-2.002    C242.713,140.888,242.796,142.134,242.796,142.134z"/>
		<path fill="#F1B99E" d="M280.848,200.788c0,0,1.581,1.121,2.53,0.916c0.95-0.206,2.285-0.037,2.701,0.038    c0.557,0.099,2.462-0.202,2.249,0.468c-0.213,0.67-3.134,0.635-3.762,0.742s1.314,1.771,1.376,2.366    c0.062,0.594-3.499,3.771-4.671,2.468c-1.172-1.302-1.398-3.518-1.658-3.703c-0.26-0.186-0.898-0.912-0.898-0.912L280.848,200.788    z"/>
		<path fill="#F1B99E" d="M285.754,204.944c0,0,3.271,4.241,3.209,4.723c-0.061,0.48-0.342,0.66-0.667,0.279    c-0.326-0.384-3.3-4-3.3-4s2.877,5.729,2.92,6.122c0.025,0.23-0.501,0.604-0.698,0.417c-0.196-0.187-3.422-5.672-3.422-5.672    s2.676,5.353,2.604,5.704c-0.063,0.307-0.625,0.549-0.855,0.167c-0.23-0.38-3.036-5.186-3.036-5.186s1.667,4.04,1.42,4.325    c-0.151,0.174-0.592,0.515-0.985-0.543c-0.393-1.06-1.617-3.436-1.617-3.436L285.754,204.944z"/>
		<path fill="#FFE3CA" d="M283.204,201.328c0,0-3.28,2.592-4.575,2.245c-1.295-0.346-12.086-15.191-12.949-17.783    c-0.862-2.59-1.813-10.273-1.813-10.273s-2.786,7.717-3.154,11.43c-0.368,3.711-1.884,10.511-1.884,10.511l-22.126,1.341    c0,0-0.865-1.354-0.489-4.229c0.374-2.879,1.385-9.741,0.737-13.432c-0.647-3.689-0.087-10.036-0.087-10.036    s-9.254,2.776-10.333,3.078c-1.08,0.303-3.884-1.381-4.619-3.108c-0.733-1.726,16.833-22.531,16.833-22.531l4.049,3.472    l-4.989,8.534c0.168-0.113,1.219-0.532,2.628-1.071c3.442-1.313,9.019-3.338,9.019-3.338s7.856-0.13,8.46-0.042    c0.604,0.086,8.374,3.885,9.495,4.834c1.124,0.948,4.23,20.546,4.834,21.841C272.844,184.063,283.204,201.328,283.204,201.328z"/>
		<path fill="#0E538C" d="M236.702,198.797c0,0-0.552,0.564-0.901,3.104c0,0,20.913-0.773,23.179-1.552c0,0,0.309-2.807-0.153-2.892    C258.321,197.363,236.702,198.797,236.702,198.797z"/>
		<path fill="#F1B99E" d="M257.91,156.094c-0.216,0.949-7.468,6.517-7.468,6.517s-1.647-6.208-0.993-6.475    c0.257-0.104,0.396-0.59,0.471-1.139c0.07-0.524,0.083-1.107,0.081-1.479c0-0.23-0.006-0.38-0.006-0.38s0.974-0.877,2.208-1.917    c2.157-1.82,5.107-4.134,5.031-3.127c-0.003,0.054-0.016,0.117-0.038,0.189C256.534,150.513,257.91,156.094,257.91,156.094z"/>
		<polygon fill="#F2F2F2" points="249.653,155.943 247.597,156.87 248.5,165.157 250.442,162.61   "/>
		<polygon fill="#F2F2F2" points="257.81,155.665 250.442,162.61 251.394,165.431 260.222,157.054   "/>
		<path fill="#0E538C" d="M254.053,197.58c0,0,0.227,2.888,0.207,3.634l0.974-0.115c0,0-0.024-3.038-0.14-3.557L254.053,197.58z"/>
		<path fill="#0E538C" d="M238.457,198.602c0,0-0.569,2.562-0.656,3.541l1.025-0.051c0,0,0.465-3.221,0.607-3.55L238.457,198.602z"/>
		<g>
			<path fill="#FCD2B1" d="M244.722,198.114c-0.004-0.025-0.013-0.912,0.083-4.63c0.039-1.511,0.167-5.626,0.697-8.099     c0.784-3.654,0.839-5.354,0.556-8.504c-0.476-5.289,3.625-11.789,3.645-11.859l0.53,0.137c-0.018,0.069-3.894,6.454-3.427,11.646     c0.29,3.234,0.186,5.253-0.606,8.946c-0.502,2.342-0.577,6.239-0.614,7.7c-0.093,3.604-0.138,4.557-0.133,4.582L244.722,198.114z     "/>
		</g>
		<path fill="#051f9d" d="M250.91,165.354c0,0-0.553,10.077-7.072,11.544c-6.518,1.468-15.193,7.122-17.74,10.273l-3.108,4.101    v-4.576c0,0,1.295-7.521,20.59-10.646c0,0,5.535-0.365,5.333-10.94C248.913,165.11,250.947,164.914,250.91,165.354z"/>
		<path fill="#A77860" d="M255.88,150.43C255.88,150.43,255.88,150.43,255.88,150.43c-0.015,0.018-0.313,0.397-0.815,0.935    c-1.063,1.139-3.039,2.992-5.145,3.633c0.07-0.524,0.083-1.107,0.081-1.479c-0.208-0.021-0.415-0.061-0.619-0.125    c0.638-0.933,1.528-1.896,1.528-1.896l1.293-0.276L255.88,150.43z"/>
		<path fill="#F1B99E" d="M258.791,141.757c-0.172,0.854-0.645,1.671-1.171,2.271c0.208,1.307,0.009,3.35,0.009,3.35    c-0.137,0.246-0.263,0.491-0.391,0.718c-0.645,1.144-1.18,2.007-1.362,2.334c0,0.009-0.009,0.018-0.019,0.027    c-0.109,0.217-0.399,0.545-0.79,0.908c-1.125,1.034-3.178,2.36-5.067,2.151c-0.208-0.019-0.417-0.055-0.617-0.127    c-0.754-0.228-1.625-0.653-2.053-1.662c-0.417-1.008-0.726-1.97-0.953-2.905v-0.01c-0.136-0.562-0.236-1.116-0.318-1.652    c0-0.018-0.009-0.026-0.009-0.036c-0.027-0.19-0.046-0.372-0.064-0.554c-0.499-4.358,0.745-7.563,1.208-8.572    c0.1-0.218,0.164-0.336,0.164-0.336s0.19-0.036,0.526-0.09l0.263,0.227c1.471,0.137,2.942-0.336,5.603,0.055    c3.142,0.453,0.054,5.92,0.054,5.92l1.762-0.173c0-0.48,0.072-1.025,0.163-1.525C256.031,140.404,259.145,139.995,258.791,141.757    z"/>
		<path fill="#515154" d="M247.886,137.571l0.263,0.227c-0.254-0.019-0.518-0.063-0.79-0.137c0,0-0.101-0.145-0.245-0.39    l0.199-0.219L247.886,137.571z"/>
		<path fill="#515154" d="M258.791,141.757c-0.172,0.854-0.645,1.671-1.171,2.271c-0.073-0.473-0.209-0.845-0.417-0.999    c-0.809-0.572-1.634,0.571-1.634,0.571c0-0.48,0.072-1.025,0.163-1.525C256.031,140.404,259.145,139.995,258.791,141.757z"/>
		<path fill="#F1B99E" d="M258.791,141.757c-0.172,0.854-0.645,1.671-1.171,2.271c-0.545,0.626-1.144,1.007-1.498,0.953    c-0.418-0.072-0.554-0.653-0.554-1.381c0-0.48,0.072-1.025,0.163-1.525C256.031,140.404,259.145,139.995,258.791,141.757z"/>
		<path fill="#FCD2B1" d="M248.644,164.969c0,0,1.239,1.069,2.658,0.188c0,0-0.535-2.46-0.859-2.547    C250.118,162.525,248.485,164.521,248.644,164.969z"/>
		<path fill="#051f9d" d="M247.307,197.941c0,0-3.078,0.121-4.106,0.292l0.131,3.412l4.168-0.248L247.307,197.941z"/>
		<path fill="#D5BBAF" d="M240.431,159.474l-6.951,7.994l4.323-6.923C237.971,160.432,239.022,160.013,240.431,159.474z"/>
	</g>
	<path fill="#CCE9FF" d="M251.936,131.496c-0.018,0.128-0.036,0.245-0.064,0.363c-0.126,0-0.245,0.009-0.354,0.009   C251.645,131.741,251.781,131.615,251.936,131.496z"/>
	<path fill="#CCE9FF" d="M251.936,131.496c-0.018,0.128-0.036,0.245-0.064,0.363c-0.126,0-0.245,0.009-0.354,0.009   C251.645,131.741,251.781,131.615,251.936,131.496z"/>
	<path fill="#0B4870" d="M257.647,147.35c-0.009,0.019-0.018,0.027-0.018,0.027s0.199-2.043-0.009-3.35   c0.527-0.6,0.999-1.417,1.171-2.271c0.354-1.762-2.76-1.353-3.06,0.317c-0.091,0.5-0.163,1.045-0.163,1.525l-1.762,0.173   c0,0,3.088-5.467-0.054-5.92c-2.661-0.391-4.131,0.082-5.603-0.055l-0.263-0.227l-0.572-0.519l-0.199,0.219   c-0.436-0.727-1.326-2.36-1.398-3.796c0-0.045-0.009-0.1,0-0.145c-0.019-0.255-0.019-0.482-0.019-0.69   c-0.018-0.027-0.027-0.055-0.036-0.082c0.164-1.743,2.243-3.123,4.785-3.123c0.391,0,0.781,0.036,1.144,0.1   c0.236,0.463,0.373,0.98,0.373,1.534c0,0.146-0.009,0.291-0.027,0.427c-0.155,0.119-0.291,0.245-0.417,0.372   c0.108,0,0.227-0.009,0.354-0.009c0.028-0.118,0.046-0.235,0.064-0.363c0.544-0.418,1.244-0.744,2.052-0.953   c0.59-0.154,1.244-0.236,1.925-0.236c2.86,0,5.185,1.489,5.185,3.323v0.01c0.363,0.508,0.663,1.289,0.763,2.487   C262.341,141.856,257.974,146.987,257.647,147.35z"/>
	<path fill="#0B4870" d="M245.697,132.641c0,0.208,0,0.436,0.019,0.69c-0.055-0.174-0.073-0.354-0.073-0.536   c0-0.081,0-0.154,0.018-0.236C245.67,132.586,245.679,132.613,245.697,132.641z"/>
	<path fill="#0B4870" d="M251.518,131.868c0.126-0.127,0.263-0.253,0.417-0.372c-0.018,0.128-0.036,0.245-0.064,0.363   C251.745,131.859,251.626,131.868,251.518,131.868z"/>
	<path fill="#0B4870" d="M253.987,130.543c-0.808,0.209-1.507,0.535-2.052,0.953c0.018-0.136,0.027-0.281,0.027-0.427   c0-0.554-0.136-1.071-0.373-1.534C252.535,129.698,253.361,130.053,253.987,130.543z"/>
	<g>
		<path fill="#051f9d" d="M193.426,137.5c2.08,0.248,3.638,1.362,4.674,3.344c1.048,2.005,1.252,3.842,0.613,5.51    c-0.639,1.669-1.895,3.125-3.768,4.369l1.457,3.375l-4.216,2.204l-2.937-5.111c2.068-1.374,3.415-2.614,4.041-3.718    c0.625-1.105,0.655-2.198,0.089-3.281c-0.47-0.898-1.14-1.436-2.009-1.612c-0.869-0.176-1.904,0.05-3.102,0.676    c-1.198,0.626-1.994,1.476-2.388,2.546c-0.394,1.071-0.312,2.253,0.247,3.545l-5.469,0.483c-0.664-2-0.524-3.936,0.419-5.808    c0.942-1.872,2.751-3.507,5.424-4.904C189.037,137.792,191.345,137.254,193.426,137.5z M198.025,157.033    c0.782,0.207,1.391,0.725,1.824,1.555s0.513,1.625,0.235,2.386s-0.877,1.382-1.798,1.863c-0.922,0.482-1.768,0.616-2.539,0.404    c-0.771-0.213-1.374-0.733-1.808-1.563s-0.518-1.622-0.253-2.377c0.266-0.755,0.859-1.373,1.781-1.855    C196.39,156.964,197.242,156.826,198.025,157.033z"/>
	</g>
	<g>
		<path fill="#051f9d" d="M312.254,134.099c1.696,2.046,2.155,4.434,1.375,7.161c-0.788,2.76-2.206,4.628-4.251,5.604    c-2.046,0.977-4.474,1.217-7.283,0.722l-1.612,4.379l-5.805-1.659l1.768-7.266c3.104,0.545,5.426,0.581,6.967,0.112    c1.54-0.469,2.524-1.449,2.95-2.94c0.354-1.236,0.207-2.316-0.438-3.238c-0.646-0.923-1.794-1.619-3.442-2.091    c-1.65-0.472-3.124-0.386-4.422,0.256c-1.298,0.641-2.256,1.8-2.872,3.476l-5.451-4.337c1.138-2.42,2.958-4.077,5.462-4.976    c2.503-0.896,5.595-0.819,9.275,0.232C307.964,130.531,310.557,132.054,312.254,134.099z M299.41,156.083    c0.538,0.875,0.645,1.884,0.318,3.025s-0.949,1.941-1.869,2.399c-0.92,0.457-2.015,0.505-3.284,0.143    c-1.269-0.363-2.164-0.979-2.688-1.85c-0.523-0.869-0.622-1.876-0.296-3.018s0.941-1.943,1.846-2.407    c0.904-0.461,1.99-0.512,3.259-0.148C297.966,154.59,298.87,155.209,299.41,156.083z"/>
	</g>
	<g>
		<path fill="#051f9d" d="M248.033,99.32c0.749,0.902,0.952,1.955,0.608,3.158c-0.348,1.218-0.974,2.042-1.876,2.473    c-0.903,0.432-1.975,0.537-3.214,0.319l-0.711,1.931l-2.561-0.732l0.78-3.205c1.369,0.241,2.394,0.257,3.074,0.05    c0.679-0.206,1.113-0.639,1.301-1.297c0.156-0.546,0.091-1.021-0.194-1.429c-0.285-0.406-0.791-0.714-1.518-0.922    c-0.729-0.208-1.378-0.17-1.951,0.112c-0.573,0.282-0.996,0.794-1.267,1.534l-2.406-1.914c0.502-1.067,1.306-1.799,2.409-2.194    c1.104-0.396,2.469-0.362,4.093,0.103C246.141,97.746,247.284,98.417,248.033,99.32z M242.366,109.019    c0.239,0.386,0.285,0.831,0.141,1.335c-0.144,0.504-0.418,0.856-0.824,1.058c-0.406,0.202-0.889,0.224-1.448,0.063    s-0.955-0.432-1.186-0.816c-0.231-0.383-0.274-0.827-0.131-1.331c0.144-0.503,0.416-0.857,0.814-1.062    c0.399-0.203,0.878-0.226,1.438-0.065S242.128,108.633,242.366,109.019z"/>
	</g>
</g>
</svg>